<svg xmlns="http://www.w3.org/2000/svg" xmlns:xlink="http://www.w3.org/1999/xlink" width="375.88" height="423.049" viewBox="0 0 375.88 423.049"><defs><linearGradient id="a" y1="0.5" x2="1" y2="0.5" gradientUnits="objectBoundingBox"><stop offset="0.014" stop-color="#fff"/><stop offset="0.39" stop-color="#001b3f"/></linearGradient><linearGradient id="b" x1="-0.005" y1="0.671" x2="1.01" y2="0.671" gradientUnits="objectBoundingBox"><stop offset="0" stop-color="#fff"/><stop offset="0.309" stop-color="#001b36"/></linearGradient></defs><g transform="translate(0.407 -90.951)"><rect width="375" height="423" transform="translate(0 91)" fill="#16406b"/><g transform="translate(-0.407 90.951)"><path d="M-69.6-62.707c.467-.122,375.549-.293,375.549-.293S230.723,1.572,136.76,95.58-69.907,313.032-69.907,313.032-70.071-62.586-69.6-62.707Z" transform="translate(69.935 63)" fill="#16406b"/><path d="M-8.534,375.593-8.645.561H183.71l79.969.564,102.283.721h0c-59.289-3.482-172.718,26-317.31,266.912A1181.336,1181.336,0,0,0-8.534,375.593Z" transform="translate(9.117 -0.561)" opacity="0.6" fill="url(#a)"/><path d="M372.753,1.975c-20.22-12.306-335.636,66.771-374.4,219.4V423.4S59.6,407.065,230.088,150.181A584.794,584.794,0,0,1,372.753,1.975Z" transform="translate(2.655 -0.726)" opacity="0.597" fill="url(#b)" style="mix-blend-mode:overlay;isolation:isolate"/></g></g></svg>