<svg xmlns="http://www.w3.org/2000/svg" xmlns:xlink="http://www.w3.org/1999/xlink" width="1938.035" height="1921.711" viewBox="0 0 1938.035 1921.711"><defs><style>.a{fill:#16406b;}.b{opacity:0.6;fill:url(#a);}.c{opacity:0.597;mix-blend-mode:overlay;isolation:isolate;fill:url(#b);}</style><linearGradient id="a" y1="0.5" x2="1" y2="0.5" gradientUnits="objectBoundingBox"><stop offset="0.014" stop-color="#fff"/><stop offset="0.39" stop-color="#001b3f"/></linearGradient><linearGradient id="b" x1="-0.005" y1="0.671" x2="1.01" y2="0.671" gradientUnits="objectBoundingBox"><stop offset="0" stop-color="#fff"/><stop offset="0.309" stop-color="#001b36"/></linearGradient></defs><g transform="translate(17.035 0)"><path class="a" d="M-68.242-61.5C-65.854-62.125,1851-63,1851-63S1466.581,266.994,986.383,747.422-69.793,1858.711-69.793,1858.711-70.63-60.883-68.242-61.5Z" transform="translate(70 63)"/><g transform="translate(-17.035 107)"><path class="b" d="M-3.61,712.73-8.645,1.287h888.2L1721.1,3.728h0c-76.145-26.9-797.525,49.4-1465.182,507.233A2735.534,2735.534,0,0,0-3.61,712.73Z" transform="translate(8.645 1.037)"/><path class="c" d="M1806.425,3.092C1707.285-24.4,190.044,153.3-.033,494.267l-.214,1310.7S300.276,909.092,1136.174,335.222C1330.116,202.075,1552.451,86.4,1806.425,3.092Z" transform="translate(5.282 1.037)"/></g></g></svg>