<svg xmlns="http://www.w3.org/2000/svg" xmlns:xlink="http://www.w3.org/1999/xlink" width="375.106" height="423" viewBox="0 0 375.106 423"><defs><linearGradient id="a" y1="0.5" x2="1" y2="0.5" gradientUnits="objectBoundingBox"><stop offset="0" stop-color="#fff"/><stop offset="0.014" stop-color="#fff"/><stop offset="1" stop-color="#ee2c33"/></linearGradient><linearGradient id="b" x1="-0.005" y1="0.671" x2="1.01" y2="0.671" gradientUnits="objectBoundingBox"><stop offset="0" stop-color="#fff"/><stop offset="0.355" stop-color="#ee2c33"/><stop offset="1" stop-color="#ee2c33"/></linearGradient></defs><g transform="translate(0.106 -108)"><rect width="375" height="423" transform="translate(0 108)" fill="#ee2c33"/><g transform="translate(-0.106 108.274)"><path d="M-11.683,373.749C-12.947,380.738-12.273.3-12.273.3L162.954.561l71.477.564,91.421.721V1.125C291.1,2.471,178.026,22.176,39.19,256.864,17.418,301.883-10.418,366.759-11.683,373.749Z" transform="translate(12.452 0.116)" opacity="0.6" fill="url(#a)"/><path d="M371.793-23.86C363.654-20.646,321.641-21.84,268-4.645,165.76,28.129,27.793,95.676,3.432,176.853l.336,178.061s6.374-2.122,34.254-27.9c34.011-31.445,92.364-92.49,182.65-207.631,23.76-30.3-30.171,13.985,0-10.066,11.347-9.045,63.289-55.785,75.184-63.795C302.292,41.192,373.456-26.768,371.793-23.86Z" transform="translate(-3.243 23.951)" opacity="0.597" fill="url(#b)" style="mix-blend-mode:overlay;isolation:isolate"/></g></g></svg>