<svg xmlns="http://www.w3.org/2000/svg" xmlns:xlink="http://www.w3.org/1999/xlink" width="1921" height="873.912" viewBox="0 0 1921 873.912"><defs><style>.a{fill:#b3000b;}.b{opacity:0.6;}.b,.f{mix-blend-mode:multiply;}.b,.f,.g{isolation:isolate;}.c{fill:#fff;}.d{fill:url(#a);}.e{fill:url(#b);}.f{fill:url(#c);}.g{mix-blend-mode:overlay;fill:url(#d);}</style><linearGradient id="a" y1="0.5" x2="1" y2="0.5" gradientUnits="objectBoundingBox"><stop offset="0" stop-color="#fff"/><stop offset="0.176" stop-color="#fff"/><stop offset="0.385" stop-color="#dfa529"/><stop offset="1" stop-color="#b3000b"/></linearGradient><linearGradient id="b" y1="0.5" x2="1" y2="0.5" gradientUnits="objectBoundingBox"><stop offset="0.176" stop-color="#fff"/><stop offset="0.385" stop-color="#dfa529"/></linearGradient><linearGradient id="c" x1="-0.032" y1="3.152" x2="0.857" y2="-0.508" gradientUnits="objectBoundingBox"><stop offset="0" stop-color="#fff"/><stop offset="1" stop-color="#b3000b"/></linearGradient><linearGradient id="d" x1="-0.008" y1="6.607" x2="0.729" y2="-2.207" gradientUnits="objectBoundingBox"><stop offset="0" stop-color="#fff"/><stop offset="0.176" stop-color="#fff"/><stop offset="1" stop-color="#b3000b"/></linearGradient></defs><g transform="translate(0 -1763.196)"><path class="a" d="M-68.242-62.324C-65.854-62.6,1851-63,1851-63S1466.581,86.14,986.383,303.269-69.793,805.515-69.793,805.515-70.63-62.043-68.242-62.324Z" transform="translate(1851.065 2568.711) rotate(180)"/><g class="b" transform="translate(0 1704.384)"><path class="c" d="M1380.572,853.733" transform="translate(-406.37 78.991)"/><path class="d" d="M1920.26,525.625V930.989H1138.688c-532.53-69.133-323.854-100.179-562.444-223.1l20.088-14.11C650.849,705.306,1428.191,832.7,1920.26,525.625Z"/><path class="e" d="M437.407,628.093,0,806.314H1848.422C1489.511,697.857,1337.9,625.61,437.407,628.093Z" transform="translate(0 124.675)"/><path class="f" d="M1331.594,931.009c-.6.409,231.452-.854,232.09,0h916.762V525.625S2308.954,831.13,1331.594,931.009Z" transform="translate(-560.186 0)"/><path class="g" d="M366,674.715,0,820.751H1848.422S1216.529,623.186,366,674.715Z" transform="translate(0 110.238)"/></g></g></svg>