<svg xmlns="http://www.w3.org/2000/svg" xmlns:xlink="http://www.w3.org/1999/xlink" width="1920.949" height="1920.843" viewBox="0 0 1920.949 1920.843"><defs><linearGradient id="a" y1="0.5" x2="1" y2="0.5" gradientUnits="objectBoundingBox"><stop offset="0.014" stop-color="#fff"/><stop offset="0.39" stop-color="#001b3f"/></linearGradient><linearGradient id="b" x1="-0.005" y1="0.671" x2="1.01" y2="0.671" gradientUnits="objectBoundingBox"><stop offset="0" stop-color="#fff"/><stop offset="0.309" stop-color="#001b36"/></linearGradient></defs><path d="M-69.879-62.835C-67.492-63.456,1850-62.99,1850-62.99S1465.793,266.822,985.86,746.984-69.733,1857.66-69.733,1857.66-72.265-62.214-69.879-62.835Z" transform="translate(70.903 63.184)" fill="#16406b"/><g transform="translate(0.8)"><path d="M-8.1,713.989-8.813-.894,915.731-1.45l677,.941L1869.6-.124l-77.545,6.543C1713.426,13.2,962.007,53.13,266.832,510.961,175.875,570.864,80.183,639.389-8.1,713.989Z" transform="translate(8.813 1.45)" opacity="0.6" fill="url(#a)"/><path d="M1917.8,2.919C1775.637-27.279,198.117,143.8.047,463.6L-2.062,1693.61S312.985,852.679,1184.031,314.432C1386.129,189.55,1653.146,81.057,1917.8,2.919Z" transform="translate(2.35 1.45)" opacity="0.597" fill="url(#b)" style="mix-blend-mode:overlay;isolation:isolate"/></g></svg>