<svg xmlns="http://www.w3.org/2000/svg" xmlns:xlink="http://www.w3.org/1999/xlink" width="1920.123" height="463.476" viewBox="0 0 1920.123 463.476"><defs><linearGradient id="a" y1="0.5" x2="1" y2="0.5" gradientUnits="objectBoundingBox"><stop offset="0.014" stop-color="#fff"/><stop offset="0.39" stop-color="#001b3f"/></linearGradient><linearGradient id="b" x1="-0.005" y1="0.671" x2="1.01" y2="0.671" gradientUnits="objectBoundingBox"><stop offset="0" stop-color="#fff"/><stop offset="0.309" stop-color="#001b36"/></linearGradient></defs><g transform="translate(-11.032 -5034.898)"><path d="M-71.59-63.788c.006-1.036,1920.123-.385,1920.123-.385s-382.7,80.537-862.665,196.08S-71.442,399.1-71.442,399.1-71.6-62.752-71.59-63.788Z" transform="translate(1859.565 5434) rotate(180)" fill="#16406b"/><g transform="translate(1854.231 10520) rotate(180)" opacity="0.6"><path d="M-68.326-62.638c2.375-.15,1908.632-.362,1908.632-.362S1271.689-17.626,794.145,98.77C439.811,185.135,133.828,286.207-1.612,344.733c-47.209,20.4-77.314,55.419-77.314,55.419S-70.7-62.487-68.326-62.638Z" transform="translate(2.852 5084.84)" fill="#16406b"/><g transform="translate(-75.817 5022.294)"><path d="M-14.952,321.423l.077-320.042,958.232.165,903.106-.435h0C1797.25-.979,991.143,23.371,275.1,229.664,181.414,256.655,75.986,287.809-14.952,321.423Z" transform="translate(13.999 -1.449)" opacity="0.6" fill="url(#a)"/><path d="M1913.506-1.206C1806.039-2.023,196.953,37.827-6.4,124.451v333.51S244.016,189.169,1138.315,43.378C1345.807,9.552,1641.788,19.959,1913.506-1.206Z" transform="translate(5.451 0.743)" opacity="0.597" fill="url(#b)" style="mix-blend-mode:overlay;isolation:isolate"/></g></g></g></svg>