<svg xmlns="http://www.w3.org/2000/svg" xmlns:xlink="http://www.w3.org/1999/xlink" width="1920.935" height="874.002" viewBox="0 0 1920.935 874.002"><defs><style>.a{fill:#edaa26;}.b{opacity:0.6;}.b,.e{mix-blend-mode:multiply;}.b,.e,.f{isolation:isolate;}.c{fill:#fff;}.d{fill:url(#a);}.e{fill:url(#c);}.f{mix-blend-mode:overlay;fill:url(#d);}</style><linearGradient id="a" y1="0.5" x2="1" y2="0.5" gradientUnits="objectBoundingBox"><stop offset="0.176" stop-color="#fff"/><stop offset="0.385" stop-color="#dfa529"/></linearGradient><linearGradient id="c" x1="-0.032" y1="3.152" x2="0.857" y2="-0.508" xlink:href="#a"/><linearGradient id="d" x1="-0.008" y1="6.607" x2="0.729" y2="-2.207" xlink:href="#a"/></defs><g transform="translate(-0.065 -1863.286)"><path class="a" d="M1.693.676C4.081.4,1920.935,0,1920.935,0s-384.419,149.14-864.617,366.269S.142,868.515.142,868.515-.695.957,1.693.676Z" transform="translate(1921 2731.801) rotate(180)"/><g class="b" transform="translate(213.422 1863.376)"><path class="c" d="M1380.572,853.733" transform="translate(-514.645 20.179)"/><path class="d" d="M2144.167,525.625V1397.8H1232.388c-621.246-148.747-377.807-215.544-656.144-480.01l23.434-30.359C663.277,912.224,1570.121,1186.314,2144.167,525.625Z" transform="translate(-437.328 -525.625)"/><path class="d" d="M386.9,628.093,0,806.314H1635C1317.53,697.857,1183.424,625.61,386.9,628.093Z" transform="translate(0 65.863)"/><path class="e" d="M1331.594,1397.725c-.6.88,231.452-1.837,232.09,0h916.762v-872.1S2308.954,1182.855,1331.594,1397.725Z" transform="translate(-773.608 -525.625)"/><path class="f" d="M323.741,674.715,0,820.751H1635S1076.066,623.186,323.741,674.715Z" transform="translate(0 51.425)"/></g></g></svg>