<svg xmlns="http://www.w3.org/2000/svg" xmlns:xlink="http://www.w3.org/1999/xlink" width="1919.394" height="874.77" viewBox="0 0 1919.394 874.77"><defs><linearGradient id="a" y1="0.5" x2="1" y2="0.5" gradientUnits="objectBoundingBox"><stop offset="0.176" stop-color="#fff"/><stop offset="0.385" stop-color="#dfa529"/></linearGradient><linearGradient id="c" x1="-0.032" y1="3.152" x2="0.857" y2="-0.508" xlink:href="#a"/><linearGradient id="d" x1="-0.008" y1="6.607" x2="0.729" y2="-2.207" xlink:href="#a"/></defs><g transform="translate(-1.859 -1863.286)"><path d="M1.152-6.152c2.388-.281,1917.988.1,1917.988.1S1536.516,149.14,1056.318,366.269.142,868.515.142,868.515-1.236-5.871,1.152-6.152Z" transform="translate(1921 2731.801) rotate(180)" fill="#edaa26"/><g transform="translate(213.422 1863.376)" opacity="0.6" style="mix-blend-mode:multiply;isolation:isolate"><path d="M1380.572,853.733" transform="translate(-514.645 20.179)" fill="#fff"/><path d="M2144.167,525.625l-.17,869.586-911.608,2.591c-621.246-148.747-377.807-215.544-656.144-480.01l23.434-30.359C663.277,912.224,1570.121,1186.314,2144.167,525.625Z" transform="translate(-437.328 -523.625)" fill="url(#a)"/><path d="M386.9,628.093,0,806.314H1635C1317.53,697.857,1183.424,625.61,386.9,628.093Z" transform="translate(0 67.863)" fill="url(#a)"/><path d="M1331.594,1393.691c-.6.882,232,4.173,232.644,6.014h918.948V525.625s-64.174,243.666-337.772,482.546C1971.563,1159.959,1712.7,1309.916,1331.594,1393.691Z" transform="translate(-776.608 -525.625)" fill="url(#c)" style="mix-blend-mode:multiply;isolation:isolate"/><path d="M323.741,674.715,0,820.751H1635S1076.066,623.186,323.741,674.715Z" transform="translate(0 53.425)" fill="url(#d)" style="mix-blend-mode:overlay;isolation:isolate"/></g></g></svg>