<svg xmlns="http://www.w3.org/2000/svg" xmlns:xlink="http://www.w3.org/1999/xlink" width="1935.039" height="495.173" viewBox="0 0 1935.039 495.173"><defs><style>.a{fill:#16406b;}.b,.c{opacity:0.6;}.c{fill:url(#a);}.d{opacity:0.597;mix-blend-mode:overlay;isolation:isolate;fill:url(#b);}</style><linearGradient id="a" y1="0.5" x2="1" y2="0.5" gradientUnits="objectBoundingBox"><stop offset="0.014" stop-color="#fff"/><stop offset="0.39" stop-color="#001b3f"/></linearGradient><linearGradient id="b" x1="-0.005" y1="0.671" x2="1.01" y2="0.671" gradientUnits="objectBoundingBox"><stop offset="0" stop-color="#fff"/><stop offset="0.309" stop-color="#001b36"/></linearGradient></defs><g transform="translate(0.039 -5001.827)"><path class="a" d="M-68.243-62.64c2.387-.149,1918.308-.36,1918.308-.36s-384.232,79.364-864.2,194.907S-69.793,399.173-69.793,399.173-70.63-62.491-68.243-62.64Z" transform="translate(1859.065 5401) rotate(180)"/><g class="b" transform="translate(1863.965 10520) rotate(180)"><path class="a" d="M-68.235-62.614C-65.837-62.775,1859.1-63,1859.1-63S1284.913-14.742,802.689,109.051-69.792,432.173-69.792,432.173-70.633-62.454-68.235-62.614Z" transform="translate(4.9 5086)"/><g transform="translate(-71.035 5023)"><path class="c" d="M-3.251,317.395-8.645,0H942.883l901.551,1.089h0c-81.574-12-854.389,22.039-1569.65,226.291C181.2,254.1,87.587,284.114-3.251,317.395Z" transform="translate(8.645 1.037)"/><path class="d" d="M1929.757,1.076C1823.85-6.447,203.034,42.178-.018,135.48L-.247,494.136S243.642,203.751,1136.6,46.719C1343.783,10.285,1658.446,23.872,1929.757,1.076Z" transform="translate(5.282 1.037)"/></g></g></g></svg>